<svg xmlns="http://www.w3.org/2000/svg" viewBox="0 0 1920 1080" preserveAspectRatio="xMidYMid slice"><defs><linearGradient id="sky" x1="0" y1="0" x2="0" y2="1"><stop offset="0" stop-color="#7fb2e6"/><stop offset=".7" stop-color="#d7e8f5"/><stop offset="1" stop-color="#f4f1e6"/></linearGradient></defs><rect width="1920" height="1080" fill="url(#sky)"/><ellipse cx="0" cy="198" rx="173" ry="35" fill="#fff" opacity=".8"/><ellipse cx="1149" cy="277" rx="148" ry="25" fill="#fff" opacity=".8"/><ellipse cx="73" cy="321" rx="150" ry="41" fill="#fff" opacity=".8"/><ellipse cx="946" cy="111" rx="152" ry="42" fill="#fff" opacity=".8"/><ellipse cx="26" cy="87" rx="150" ry="30" fill="#fff" opacity=".8"/><ellipse cx="485" cy="98" rx="273" ry="48" fill="#fff" opacity=".8"/><ellipse cx="1034" cy="254" rx="175" ry="53" fill="#fff" opacity=".8"/><ellipse cx="476" cy="111" rx="266" ry="33" fill="#fff" opacity=".8"/><ellipse cx="1512" cy="123" rx="162" ry="54" fill="#fff" opacity=".8"/><rect x="-20" y="666" width="139" height="534" fill="#b9c4cf"/><rect x="119" y="443" width="122" height="757" fill="#b9c4cf"/><rect x="168" y="403" width="3" height="80" fill="#b9c4cf"/><rect x="247" y="466" width="64" height="734" fill="#b9c4cf"/><rect x="315" y="659" width="74" height="541" fill="#b9c4cf"/><rect x="394" y="695" width="131" height="505" fill="#b9c4cf"/><rect x="527" y="532" width="116" height="668" fill="#b9c4cf"/><rect x="574" y="473" width="3" height="80" fill="#b9c4cf"/><rect x="647" y="439" width="100" height="761" fill="#b9c4cf"/><rect x="750" y="665" width="128" height="535" fill="#b9c4cf"/><rect x="879" y="686" width="95" height="514" fill="#b9c4cf"/><rect x="979" y="637" width="105" height="563" fill="#b9c4cf"/><rect x="1084" y="657" width="71" height="543" fill="#b9c4cf"/><rect x="1158" y="696" width="45" height="504" fill="#b9c4cf"/><rect x="1209" y="683" width="63" height="517" fill="#b9c4cf"/><rect x="1275" y="455" width="117" height="745" fill="#b9c4cf"/><rect x="1322" y="404" width="3" height="80" fill="#b9c4cf"/><rect x="1397" y="672" width="99" height="528" fill="#b9c4cf"/><rect x="1501" y="572" width="67" height="628" fill="#b9c4cf"/><rect x="1573" y="619" width="99" height="581" fill="#b9c4cf"/><rect x="1675" y="575" width="51" height="625" fill="#b9c4cf"/><rect x="1731" y="555" width="67" height="645" fill="#b9c4cf"/><rect x="1803" y="614" width="98" height="586" fill="#b9c4cf"/><rect x="1902" y="665" width="83" height="535" fill="#b9c4cf"/><rect x="-20" y="786" width="67" height="464" fill="#8e9aa6"/><rect x="7" y="724" width="3" height="80" fill="#8e9aa6"/><rect x="51" y="605" width="100" height="645" fill="#8e9aa6"/><rect x="156" y="789" width="90" height="461" fill="#8e9aa6"/><rect x="192" y="752" width="3" height="80" fill="#8e9aa6"/><rect x="249" y="661" width="89" height="589" fill="#8e9aa6"/><rect x="342" y="685" width="135" height="565" fill="#8e9aa6"/><rect x="483" y="739" width="65" height="511" fill="#8e9aa6"/><rect x="553" y="745" width="91" height="505" fill="#8e9aa6"/><rect x="646" y="603" width="106" height="647" fill="#8e9aa6"/><rect x="754" y="631" width="145" height="619" fill="#8e9aa6"/><rect x="904" y="778" width="87" height="472" fill="#8e9aa6"/><rect x="992" y="764" width="118" height="486" fill="#8e9aa6"/><rect x="1114" y="745" width="65" height="505" fill="#8e9aa6"/><rect x="1181" y="773" width="94" height="477" fill="#8e9aa6"/><rect x="1219" y="713" width="3" height="80" fill="#8e9aa6"/><rect x="1277" y="750" width="78" height="500" fill="#8e9aa6"/><rect x="1309" y="706" width="3" height="80" fill="#8e9aa6"/><rect x="1358" y="604" width="127" height="646" fill="#8e9aa6"/><rect x="1486" y="664" width="120" height="586" fill="#8e9aa6"/><rect x="1608" y="650" width="97" height="600" fill="#8e9aa6"/><rect x="1707" y="635" width="83" height="615" fill="#8e9aa6"/><rect x="1791" y="787" width="92" height="463" fill="#8e9aa6"/><rect x="1828" y="719" width="3" height="80" fill="#8e9aa6"/><rect x="1889" y="631" width="101" height="619" fill="#8e9aa6"/><rect y="840" width="1920" height="240" fill="#c9c3b5"/><path d="M0 1080 L860 850 L1060 850 L1920 1080 Z" fill="#9b968b"/></svg>